<svg width="50" height="50" viewBox="0 0 50 50" fill="none" xmlns="http://www.w3.org/2000/svg">
<path d="M33.3334 3.08508C32.3774 2.22103 31.1307 1.74931 29.8421 1.76409C28.3033 1.76409 26.606 2.40549 24.9338 3.61907C24.8496 3.68021 24.748 3.71282 24.6439 3.71214C24.5398 3.71145 24.4386 3.67751 24.3551 3.61526C22.6585 2.34944 20.9993 1.70764 19.4241 1.70764C16.6788 1.70764 14.6124 3.61086 14.0313 6.67463C13.1398 11.321 16.0415 17.5164 24.5312 20.8905C24.5699 20.9036 24.6097 20.9129 24.6502 20.9181C24.6882 20.9121 24.7255 20.903 24.762 20.8909C30.8827 18.4059 36.5002 13.0507 35.2641 6.67834C34.965 5.19866 34.2971 3.95608 33.3334 3.08508Z" fill="#0F2D2E"/>
<path d="M29.0032 32.9974L46.2413 23.8309L42.9898 17.6454L25.6553 26.3016L29.0032 32.9974Z" fill="#0F2D2E"/>
<path d="M42.3502 27.006L29.0195 34.0947C28.962 34.1253 28.899 34.1441 28.8341 34.1499C28.7692 34.1557 28.7038 34.1485 28.6417 34.1287C28.5797 34.1089 28.5222 34.0769 28.4727 34.0345C28.4233 33.9921 28.3828 33.9403 28.3536 33.882L25.4883 28.1514V48.2924L42.3502 40.1395V27.006Z" fill="#0F2D2E"/>
<path d="M24.5113 28.1514L21.646 33.882C21.6169 33.9403 21.5763 33.9921 21.5269 34.0345C21.4774 34.0769 21.4199 34.1089 21.3579 34.1287C21.2958 34.1485 21.2304 34.1557 21.1655 34.1499C21.1007 34.1441 21.0376 34.1253 20.9801 34.0947L7.64941 27.006V40.1395L24.5113 48.2924V28.1514Z" fill="#0F2D2E"/>
<path d="M24.3448 26.3016L7.01025 17.6454L3.75879 23.8309L20.9969 32.9974L24.3448 26.3016Z" fill="#0F2D2E"/>
<path d="M41.9302 17.0827L34.4624 14.5673C32.6985 17.3447 29.6652 19.9579 25.1125 21.8023C25.1027 21.8061 25.0935 21.8096 25.0838 21.813C24.8026 21.9217 24.491 21.9217 24.2098 21.813C24.2013 21.81 24.1928 21.8069 24.1844 21.8032C19.7142 20.0296 16.7083 17.4915 14.9304 14.7684L8.06836 17.0825L24.9995 25.5371L41.9302 17.0827Z" fill="#0F2D2E"/>
</svg>
