<svg width="50" height="50" viewBox="0 0 50 50" fill="none" xmlns="http://www.w3.org/2000/svg">
<path d="M22.1152 34.2077C22.1152 36 23.5725 37.4508 25.3584 37.4508C27.1503 37.4508 28.6015 35.9932 28.6015 34.2077C28.6015 32.4222 27.1439 30.965 25.3584 30.965C23.5725 30.9581 22.1152 32.4158 22.1152 34.2077ZM26.6382 34.2077C26.6382 34.91 26.0671 35.4815 25.3648 35.4815C24.6621 35.4815 24.0914 34.91 24.0914 34.2077C24.0914 33.505 24.6621 32.9343 25.3648 32.9343C26.0671 32.9275 26.6382 33.505 26.6382 34.2077Z" fill="#DCFEBC"/>
<path d="M19.5291 38.8226C20.048 38.6653 20.3434 38.1138 20.1857 37.5949C19.8509 36.4792 19.2341 35.573 18.3604 34.8968C17.4679 34.2077 16.4437 33.8862 15.5575 33.6362C15.5507 33.6362 15.5379 33.6298 15.531 33.6298C15.5246 33.6298 15.5246 33.6298 15.5182 33.6234C15.1173 33.525 14.7107 33.4789 14.3038 33.4789C14.3038 33.4789 14.3038 33.4789 14.297 33.4789H7.83074C7.42379 33.4789 6.98433 33.5447 6.4915 33.6695H6.48468C6.47826 33.6695 6.47184 33.6695 6.47184 33.6759C5.17193 33.991 4.03617 34.6215 3.1697 35.4879C3.03847 35.6192 2.91365 35.7632 2.79566 35.9145C1.71207 37.3132 1.55515 39.0722 1.54191 40.4508C1.52826 41.9012 1.67314 43.3391 1.81762 44.7378C1.85053 45.0259 1.87662 45.3217 1.90311 45.6107C1.90311 45.6303 1.90953 45.6436 1.90953 45.6632C1.90953 45.6761 1.91595 45.6957 1.91595 45.7094C1.91595 45.7222 1.92277 45.7419 1.92919 45.7547C1.93561 45.7684 1.93561 45.788 1.94203 45.8009C1.94886 45.8141 1.94886 45.8274 1.95528 45.8406C1.9621 45.8535 1.96852 45.8731 1.97535 45.8868C1.98177 45.8996 1.98819 45.9125 1.98819 45.9193C1.99461 45.9385 2.00143 45.9522 2.01427 45.9719C2.0207 45.9847 2.02792 45.9911 2.03434 46.0044C2.04076 46.0176 2.05401 46.0373 2.06043 46.0505C2.06685 46.0634 2.07327 46.0706 2.07969 46.0834C2.09334 46.0963 2.09976 46.1159 2.113 46.1292C2.11942 46.1424 2.12584 46.1488 2.13909 46.1557C2.15233 46.1685 2.16558 46.1818 2.172 46.195L2.19808 46.2211C2.21173 46.2343 2.22457 46.2472 2.23781 46.2544C2.25066 46.2608 2.25708 46.2737 2.27072 46.2801C2.28357 46.2933 2.29681 46.2997 2.30965 46.3062C2.3229 46.313 2.33614 46.3262 2.34938 46.3327C2.36223 46.3395 2.37547 46.3523 2.38831 46.3587C2.40196 46.3656 2.4148 46.372 2.42804 46.3788C2.44089 46.3852 2.45453 46.392 2.4742 46.3985C2.48704 46.4049 2.50028 46.4113 2.51353 46.4181C2.52677 46.4246 2.54604 46.431 2.55928 46.4382C2.57212 46.4446 2.58577 46.4446 2.59861 46.451C2.61827 46.4575 2.63834 46.4639 2.65801 46.4639C2.67085 46.4639 2.67727 46.4707 2.69051 46.4707C2.717 46.4771 2.74309 46.4771 2.76315 46.4836H2.78242C2.81533 46.4836 2.84824 46.49 2.88115 46.49H17.2973C17.8419 46.49 18.2817 46.0505 18.2817 45.5055C18.2817 44.9605 17.8419 44.5207 17.2973 44.5207H3.7737C3.63605 43.1814 3.49197 41.7968 3.50481 40.4572C3.51765 39.3937 3.6228 38.0484 4.34479 37.1093C4.41101 37.0242 4.48927 36.9383 4.56151 36.8597C5.17193 36.2428 5.99265 35.7966 6.9446 35.5666H6.95102C6.95785 35.5666 6.95785 35.5666 6.96427 35.5602C7.29938 35.4679 7.58111 35.4289 7.82391 35.4289H14.2777C14.5402 35.4289 14.7958 35.4614 15.0454 35.5204C15.7807 35.7243 16.5424 35.9671 17.1528 36.4331C17.6974 36.8533 18.0783 37.4243 18.295 38.1399C18.4262 38.5665 18.8139 38.8422 19.2405 38.8422C19.3384 38.8687 19.4308 38.8555 19.5291 38.8226Z" fill="#DCFEBC"/>
<path d="M48.3161 40.7919C48.1126 39.0987 47.6334 37.6017 46.885 36.3416C45.9334 34.7463 44.5677 33.7089 43.025 33.4331C42.7497 33.3806 42.48 33.4524 42.2705 33.6101C42.2243 33.6362 42.1846 33.6627 42.1457 33.7024L38.9944 36.3608L35.7713 33.6499C35.5085 33.4263 35.1673 33.3673 34.8587 33.4596C34.2218 33.5973 33.5849 33.8597 33.0664 34.2077C32.6069 34.5163 32.1738 34.9229 31.734 35.455C31.2809 36.0065 30.8803 36.663 30.5196 37.4573C30.2896 37.9497 30.5063 38.5336 31.0052 38.7636C31.1364 38.8226 31.2809 38.8555 31.4189 38.8555C31.793 38.8555 32.1473 38.6452 32.3115 38.2844C32.6069 37.6475 32.9155 37.1294 33.2634 36.7092C33.5721 36.3279 33.8674 36.0526 34.1624 35.8491C34.3795 35.7043 34.6288 35.5863 34.8977 35.4944L38.3643 38.4088C38.5481 38.5601 38.7713 38.6388 39.0008 38.6388C39.224 38.6388 39.4539 38.5601 39.6378 38.4088L43.0972 35.4879C44.1676 35.8556 44.8631 36.7878 45.2046 37.3585C45.8086 38.3763 46.2023 39.6168 46.3733 41.0347C46.5109 42.1645 46.4648 43.2934 46.3929 44.4617H33.257C32.712 44.4617 32.2718 44.9015 32.2718 45.4465C32.2718 45.9911 32.712 46.431 33.257 46.431H47.2987C47.3312 46.431 47.3645 46.431 47.3971 46.4246H47.4171C47.4432 46.4246 47.4697 46.4181 47.489 46.4113C47.5022 46.4113 47.515 46.4049 47.5219 46.4049C47.5415 46.3985 47.5612 46.3985 47.5809 46.3921C47.5945 46.3852 47.6073 46.3852 47.6202 46.3788C47.6334 46.372 47.6535 46.3656 47.6663 46.3587C47.6796 46.3523 47.6924 46.3459 47.7057 46.3395C47.7189 46.3327 47.7322 46.3262 47.7514 46.3198C47.7647 46.313 47.7783 46.3062 47.7912 46.2933C47.804 46.2869 47.8172 46.2801 47.8309 46.2672C47.8437 46.2608 47.8566 46.2472 47.8698 46.2408C47.8827 46.2343 47.8963 46.2211 47.9091 46.2147C47.9224 46.2082 47.9288 46.195 47.9421 46.1882C47.9553 46.1749 47.9685 46.1685 47.975 46.1557C47.9878 46.1424 47.9946 46.136 48.0075 46.1224C48.0211 46.1095 48.0275 46.0963 48.0404 46.0834C48.0472 46.0706 48.06 46.0634 48.0665 46.0505C48.0801 46.0373 48.0865 46.0244 48.0998 46.0112C48.1062 45.9979 48.1126 45.9911 48.1259 45.9783C48.1323 45.965 48.1459 45.9522 48.1524 45.9321C48.1588 45.9193 48.1652 45.906 48.1716 45.8932C48.1784 45.8796 48.1849 45.8599 48.1913 45.8471C48.1985 45.8338 48.2049 45.8206 48.2113 45.8073C48.2178 45.7945 48.2242 45.7748 48.231 45.7616C48.2374 45.7483 48.2374 45.7355 48.2439 45.7158C48.2503 45.703 48.2503 45.6829 48.2571 45.6697C48.2639 45.6568 48.2639 45.6368 48.2703 45.6235C48.2703 45.6107 48.2772 45.591 48.2772 45.5778C48.2772 45.5645 48.2836 45.5448 48.2836 45.532C48.2836 45.5256 48.2836 45.5188 48.2836 45.5188L48.2964 45.3482C48.3952 43.8641 48.4999 42.3414 48.3161 40.7919Z" fill="#DCFEBC"/>
<path d="M30.2034 38.7242C29.5661 37.9232 28.7129 37.6808 28.0892 37.5034C28.0892 37.5034 28.0892 37.5034 28.0828 37.5034H28.0763C28.0695 37.5034 28.0567 37.497 28.0503 37.497C28.0302 37.4898 28.0041 37.4833 27.984 37.4833C27.9644 37.4833 27.9515 37.4769 27.9319 37.4769C27.9182 37.4769 27.899 37.4705 27.8857 37.4705C27.8665 37.4705 27.8464 37.4705 27.8267 37.4705C27.8139 37.4705 27.8002 37.4705 27.787 37.4705C27.7677 37.4705 27.7481 37.4705 27.728 37.4705C27.7152 37.4705 27.7019 37.4705 27.6891 37.4705C27.669 37.4705 27.6558 37.4769 27.6365 37.4769C27.6232 37.4769 27.61 37.4833 27.5968 37.4833C27.5839 37.4898 27.5643 37.4898 27.5506 37.497C27.5378 37.5034 27.5181 37.5034 27.5053 37.5098C27.4916 37.5162 27.4788 37.5162 27.4655 37.5231C27.4463 37.5295 27.4326 37.5359 27.413 37.5423C27.4001 37.5492 27.3869 37.5556 27.3736 37.5624C27.3604 37.5688 27.3407 37.5756 27.3279 37.5885C27.315 37.5949 27.3014 37.6082 27.2881 37.6146C27.2753 37.6214 27.2625 37.6282 27.2488 37.6411C27.2291 37.6543 27.2099 37.6671 27.1898 37.6872C27.183 37.6936 27.1766 37.6936 27.1701 37.7001H27.1637C27.1637 37.7001 27.1637 37.7001 27.1569 37.7001L25.3585 39.2034L23.5004 37.6475C23.2576 37.4444 22.9229 37.3653 22.6143 37.4508C21.991 37.6146 21.1964 37.9035 20.5723 38.6785C20.126 39.2299 19.8704 39.86 19.693 40.3392C19.1155 41.9345 18.8855 43.7068 19.0232 45.5974C19.0629 46.1159 19.4895 46.51 20.008 46.51H30.7151C31.2139 46.51 31.6406 46.136 31.6931 45.6235C31.8705 43.8974 31.667 42.1183 31.0959 40.4769C30.9386 39.9716 30.6754 39.315 30.2034 38.7242ZM21.564 41.0154C21.7478 40.5166 21.9184 40.1751 22.1222 39.919C22.2663 39.7416 22.4305 39.6168 22.6737 39.5117L24.7417 41.2454C25.1093 41.5536 25.6407 41.5536 26.0015 41.2454L28.0302 39.5514C28.3192 39.6565 28.5094 39.7681 28.6607 39.9519C28.8834 40.2276 29.0608 40.5952 29.251 41.127C29.6319 42.217 29.8157 43.3853 29.8025 44.5407H20.9732C20.9732 43.2801 21.1699 42.0922 21.564 41.0154Z" fill="#DCFEBC"/>
<path d="M3.55089 20.1395C4.29295 22.6603 5.25092 25.5751 6.70213 28.3455C6.89878 30.6499 8.83559 32.4615 11.1858 32.4615C13.6672 32.4615 15.6891 30.4396 15.6891 27.9582C15.6891 25.4764 13.6672 23.4545 11.1858 23.4545C9.64949 23.4545 8.29741 24.2295 7.48351 25.4045C6.59698 23.3493 5.93358 21.2753 5.3958 19.4239C5.38215 19.3846 5.36931 19.3517 5.35607 19.3128C4.19422 14.5402 6.19685 9.61626 10.3783 7.01043C14.5995 4.37771 19.9761 4.78465 23.7506 8.02097C24.1379 8.3625 24.6239 8.53347 25.1099 8.53347C25.5951 8.53347 26.0807 8.3625 26.4684 8.02097C30.2429 4.78465 35.6195 4.37771 39.8407 7.01043C44.0221 9.61626 46.0248 14.5466 44.8625 19.3128C44.8497 19.3453 44.8364 19.3846 44.8232 19.4239C44.1606 21.6951 43.4643 23.6122 42.6568 25.3849C41.8429 24.2359 40.4972 23.481 38.987 23.481C36.506 23.481 34.4841 25.5033 34.4841 27.9843C34.4841 30.4661 36.506 32.488 38.987 32.488C41.4034 32.488 43.3856 30.5709 43.4843 28.1809C44.7509 25.785 45.7422 23.2907 46.6681 20.1459C46.6942 20.0869 46.7203 20.0279 46.7339 19.9621C47.4427 17.1986 47.2588 14.3427 46.2017 11.6971C45.145 9.05158 43.307 6.8527 40.8845 5.34932C38.4621 3.83952 35.6849 3.15686 32.8427 3.37318C30.0001 3.5899 27.3545 4.67991 25.1881 6.53766C25.1817 6.54408 25.1817 6.54408 25.1753 6.5505C25.1685 6.55692 25.1685 6.55692 25.1617 6.56334C25.1424 6.57699 25.083 6.57699 25.0637 6.56334C25.0569 6.55692 25.0569 6.55692 25.0505 6.5505C25.0437 6.54408 25.0437 6.54408 25.0372 6.53766C22.8709 4.67991 20.2253 3.5899 17.3827 3.37318C14.5405 3.15686 11.7565 3.83952 9.34086 5.34932C6.91844 6.85912 5.08035 9.05158 4.02365 11.6971C2.96655 14.3427 2.78274 17.205 3.49229 19.9621C3.49872 20.0211 3.51798 20.0805 3.55089 20.1395ZM38.9742 30.5115C37.576 30.5115 36.4402 29.3761 36.4402 27.9779C36.4402 26.5792 37.576 25.4439 38.9742 25.4439C40.3724 25.4439 41.5078 26.5792 41.5078 27.9779C41.5078 29.3825 40.3724 30.5115 38.9742 30.5115ZM11.179 25.4306C12.5776 25.4306 13.7129 26.5664 13.7129 27.9646C13.7129 29.3633 12.5776 30.4986 11.179 30.4986C9.78072 30.4986 8.64536 29.3633 8.64536 27.9646C8.65178 26.5664 9.78714 25.4306 11.179 25.4306Z" fill="#DCFEBC"/>
</svg>
