<svg width="50" height="50" viewBox="0 0 50 50" fill="none" xmlns="http://www.w3.org/2000/svg">
<path d="M37.2831 16.8006H33.2246V12.7417C33.2246 10.8805 31.7126 9.36189 29.8444 9.36189H20.1482C18.2874 9.36189 16.7684 10.8739 16.7684 12.7286V16.8006H12.7103C10.8487 16.8006 9.33008 18.3122 9.33008 20.1804V29.8762C9.33008 31.7379 10.8421 33.256 12.7103 33.256H16.7684V37.2948C16.7684 39.1696 18.28 40.6882 20.1482 40.6882H29.858C31.7126 40.6882 33.2246 39.163 33.2246 37.2948V33.256H37.2831C39.1439 33.256 40.6629 31.7444 40.6629 29.8762V20.1738C40.6629 18.3122 39.1439 16.8006 37.2831 16.8006ZM37.2831 31.2336H32.2165C31.6589 31.2336 31.2087 31.6837 31.2087 32.2417V37.2882C31.2087 38.0473 30.6039 38.6657 29.858 38.6657C29.858 38.6657 29.858 38.6657 29.8514 38.6657C29.8514 38.6657 29.8514 38.6657 29.8444 38.6657H20.1482C19.3956 38.6657 18.7847 38.0473 18.7847 37.2882V32.2417C18.7847 31.6837 18.3341 31.2336 17.7761 31.2336H12.7103C11.9578 31.2336 11.346 30.6222 11.346 29.8697V20.1738C11.346 19.4213 11.9578 18.8095 12.7103 18.8095H17.7761C18.3341 18.8095 18.7847 18.3594 18.7847 17.8018V12.7417C18.7847 12.7417 18.7847 12.7417 18.7847 12.7351C18.7847 12.7351 18.7847 12.7351 18.7847 12.7286C18.7847 11.9695 19.3825 11.3778 20.1482 11.3778H29.8444C30.5974 11.3778 31.2087 11.9892 31.2087 12.7417V17.8083C31.2087 18.3664 31.6589 18.8165 32.2165 18.8165H37.2831C38.0356 18.8165 38.647 19.4279 38.647 20.1804V29.8762C38.647 30.6288 38.0356 31.2336 37.2831 31.2336Z" fill="#DCFEBC"/>
<path d="M46.6096 15.8864C45.4274 13.0983 43.741 10.5916 41.5901 8.43458C39.4401 6.2845 36.9338 4.59112 34.1383 3.41514C31.2488 2.19239 28.1784 1.57404 25.0136 1.57404C21.8484 1.57404 18.7776 2.19239 15.8885 3.41514C13.1 4.59768 10.5938 6.2845 8.43631 8.43458C6.28623 10.5851 4.59325 13.0913 3.41728 15.8864C2.19452 18.7759 1.57617 21.8467 1.57617 25.0115C1.57617 28.1763 2.19452 31.2471 3.41728 34.1366C4.59982 36.9251 6.28623 39.4318 8.43631 41.5884C10.5872 43.7389 13.0934 45.4323 15.8885 46.6078C18.7776 47.831 21.8484 48.4494 25.0136 48.4494C28.1784 48.4494 31.2488 47.831 34.1383 46.6078C36.9273 45.4257 39.4335 43.7389 41.5901 41.5884C43.741 39.4383 45.434 36.9321 46.6096 34.1366C47.8327 31.2471 48.4511 28.1763 48.4511 25.0115C48.4577 21.8467 47.8327 18.7759 46.6096 15.8864ZM25.0202 46.4269C13.2079 46.4269 3.59864 36.8176 3.59864 25.0049C3.59864 13.1918 13.2079 3.58337 25.0202 3.58337C36.8329 3.58337 46.4422 13.1918 46.4422 25.0049C46.4422 36.8176 36.8329 46.4269 25.0202 46.4269Z" fill="#DCFEBC"/>
</svg>
