<svg width="139" height="44" viewBox="0 0 139 44" fill="none" xmlns="http://www.w3.org/2000/svg">
<circle cx="22" cy="22" r="19" stroke="#C0FECF" stroke-width="3"/>
<path d="M25.8536 12.5082C24.9217 13.0597 24.0971 13.7976 23.4347 14.6583L17.9854 9.46672C18.9141 7.98043 20.2824 6.77909 21.9427 6.05399C22.4087 5.89093 22.9295 6.10749 23.139 6.56511L25.8536 12.5082Z" fill="#C0FECF"/>
<path d="M29.8506 13.3377C27.192 13.3377 24.8627 15.1546 23.9049 17.7765L11.8351 6.2771C11.4548 5.8994 10.7826 5.93098 10.4391 6.34219C9.67013 7.22585 9.0546 8.20031 8.59898 9.25283L16.6168 17.2674C16.9945 17.6451 16.9945 18.2574 16.6168 18.6344C16.2391 19.0121 15.628 19.0127 15.2497 18.635L6.99964 10C6.82561 10.7902 6.50058 12.6867 6.50058 13.5C6.50058 16.5093 8.8439 19.5715 10.9721 21.6991L15.9329 26.6579C16.5513 27.3236 16.1435 28.3114 15.2329 28.3446H7.96734C6.2374 28.3446 5.50004 30 6.00055 31C5.99668 31.1644 6.95092 33.0045 9.56056 35.7908L13.7674 32.4451C14.185 32.1125 14.7934 32.1821 15.126 32.5998C15.458 33.0174 15.389 33.6258 14.9713 33.9584L11.0559 37.0721C12.778 38.2516 14.9739 38.8986 17.5958 38.9985C17.5 39.5 17.6203 38.9992 17.6332 38.9992C18 39.5 18.3196 38.8019 18.4872 38.4842L20.52 34.6396C21.0085 34.6519 21.4829 34.6293 21.9431 34.5732C22.7288 34.4766 23.4712 34.28 24.1686 33.9835C23.1702 32.8407 22.625 31.3919 22.625 29.8605C22.625 28.1828 23.2786 26.6057 24.4651 25.4204C25.6497 24.2358 27.2268 23.5836 28.9051 23.5836C29.607 23.5836 30.2909 23.6977 30.9353 23.9175C31.257 22.4525 32.5479 21.4026 34.0509 21.4026H35.2949C35.8286 21.4026 36.2617 20.9701 36.2617 20.4358C36.2616 16.5217 33.3858 13.3377 29.8506 13.3377ZM29.9453 18.9611C29.4117 18.9611 28.9785 18.5287 28.9785 17.9944C28.9785 17.4607 29.4117 17.0276 29.9453 17.0276C30.4797 17.0276 30.9121 17.4607 30.9121 17.9944C30.9121 18.5287 30.4797 18.9611 29.9453 18.9611Z" fill="#C0FECF"/>
<path d="M39.9997 29.8608C39.9997 31.0212 39.5473 32.1124 38.7264 32.9333L32.9233 38.7346C32.5681 39.0888 31.9902 39.0888 31.635 38.7346L25.8319 32.9333C25.0109 32.1124 24.5586 31.0212 24.5586 29.8608C24.5586 28.6996 25.011 27.6085 25.8319 26.7882C27.6418 24.9612 30.6255 25.1547 32.2792 27.0886C33.9327 25.1545 36.9174 24.9613 38.7265 26.7882C39.5477 27.6086 39.9994 28.6996 39.9997 29.8608Z" fill="#C0FECF"/>
<path d="M132.784 34.92V14.12H137.104V34.92H132.784ZM134.944 10.64C134.011 10.64 133.304 10.4533 132.824 10.08C132.344 9.68 132.104 9.09333 132.104 8.32C132.104 7.57333 132.344 7 132.824 6.6C133.304 6.2 134.011 6 134.944 6C135.904 6 136.624 6.2 137.104 6.6C137.584 7 137.824 7.57333 137.824 8.32C137.824 9.09333 137.584 9.68 137.104 10.08C136.624 10.4533 135.904 10.64 134.944 10.64Z" fill="#C0FECF"/>
<path d="M116.339 34.9201V24.0801V14.1201H120.099L119.899 21.3201H120.579C120.819 19.6935 121.192 18.3068 121.699 17.1601C122.206 16.0135 122.899 15.1468 123.779 14.5601C124.659 13.9468 125.752 13.6401 127.059 13.6401C127.326 13.6401 127.619 13.6535 127.939 13.6801C128.259 13.7068 128.619 13.7868 129.019 13.9201L128.819 18.4801C128.419 18.3201 128.006 18.2135 127.579 18.1601C127.152 18.0801 126.766 18.0401 126.419 18.0401C125.352 18.0401 124.446 18.3468 123.699 18.9601C122.952 19.5468 122.326 20.3735 121.819 21.4401C121.339 22.4801 120.966 23.6935 120.699 25.0801V34.9201H116.339Z" fill="#C0FECF"/>
<path d="M98.4434 35.4401C97.2967 35.4401 96.27 35.2268 95.3634 34.8001C94.4567 34.3468 93.7367 33.6801 93.2034 32.8001C92.6967 31.9201 92.4434 30.8268 92.4434 29.5201C92.4434 28.4801 92.63 27.5868 93.0034 26.8401C93.4034 26.0668 93.99 25.4268 94.7634 24.9201C95.5634 24.3868 96.5767 23.9601 97.8034 23.6401C99.03 23.2934 100.483 23.0001 102.163 22.7601C103.097 22.6268 103.857 22.4934 104.443 22.3601C105.057 22.2268 105.497 22.0134 105.763 21.7201C106.057 21.4268 106.203 20.9868 106.203 20.4001C106.203 19.4934 105.883 18.7201 105.243 18.0801C104.63 17.4134 103.63 17.0801 102.243 17.0801C101.47 17.0801 100.697 17.2134 99.9234 17.4801C99.1767 17.7468 98.5234 18.1868 97.9634 18.8001C97.43 19.3868 97.07 20.1868 96.8834 21.2001L92.9634 19.9601C93.2034 18.9468 93.59 18.0534 94.1234 17.2801C94.6567 16.4801 95.3234 15.8134 96.1234 15.2801C96.9234 14.7201 97.8434 14.3068 98.8834 14.0401C99.95 13.7468 101.11 13.6001 102.363 13.6001C104.203 13.6001 105.723 13.9068 106.923 14.5201C108.123 15.1334 109.017 16.0801 109.603 17.3601C110.217 18.6134 110.523 20.2268 110.523 22.2001V26.4401C110.523 27.3201 110.537 28.2534 110.563 29.2401C110.617 30.2001 110.67 31.1734 110.723 32.1601C110.803 33.1201 110.897 34.0401 111.003 34.9201H107.043C106.963 34.1201 106.883 33.2934 106.803 32.4401C106.75 31.5868 106.697 30.7201 106.643 29.8401H106.043C105.67 30.8534 105.137 31.7868 104.443 32.6401C103.777 33.4934 102.937 34.1734 101.923 34.6801C100.937 35.1868 99.7767 35.4401 98.4434 35.4401ZM99.9634 32.0801C100.523 32.0801 101.083 31.9868 101.643 31.8001C102.23 31.6134 102.803 31.3334 103.363 30.9601C103.95 30.5601 104.483 30.0534 104.963 29.4401C105.47 28.8268 105.91 28.0934 106.283 27.2401L106.243 23.4801L107.283 23.6801C106.83 24.0801 106.257 24.3868 105.563 24.6001C104.897 24.8134 104.163 24.9868 103.363 25.1201C102.563 25.2268 101.763 25.3601 100.963 25.5201C100.19 25.6534 99.47 25.8534 98.8034 26.1201C98.1634 26.3601 97.6434 26.7068 97.2434 27.1601C96.87 27.6134 96.6834 28.2401 96.6834 29.0401C96.6834 30.0268 96.99 30.7868 97.6034 31.3201C98.2167 31.8268 99.0034 32.0801 99.9634 32.0801Z" fill="#C0FECF"/>
<path d="M69.3076 34.9202V22.1602V6.72021H73.7076V13.2002C73.7076 13.7602 73.6943 14.3469 73.6676 14.9602C73.641 15.5469 73.5876 16.1469 73.5076 16.7602C73.4276 17.3735 73.3476 17.9869 73.2676 18.6002C73.1876 19.2135 73.0943 19.8402 72.9876 20.4802H73.7076C74.1076 18.9869 74.601 17.7335 75.1876 16.7202C75.801 15.6802 76.561 14.9069 77.4676 14.4002C78.401 13.8669 79.521 13.6002 80.8276 13.6002C83.2276 13.6002 85.0143 14.4402 86.1876 16.1202C87.361 17.7735 87.9476 20.2669 87.9476 23.6002V34.9202H83.5476V24.1602C83.5476 21.8136 83.1876 20.0935 82.4676 19.0002C81.7743 17.9069 80.721 17.3602 79.3076 17.3602C78.1343 17.3602 77.1476 17.7069 76.3476 18.4002C75.5743 19.0935 74.961 20.0269 74.5076 21.2002C74.0543 22.3735 73.761 23.7069 73.6276 25.2002V34.9202H69.3076Z" fill="#C0FECF"/>
<path d="M56.24 35.4401C54.4533 35.4401 52.9067 35.1601 51.6 34.6001C50.32 34.0401 49.2667 33.2668 48.44 32.2801C47.6133 31.2934 47 30.1601 46.6 28.8801C46.2 27.6001 46 26.2268 46 24.7601C46 23.1868 46.2133 21.7334 46.64 20.4001C47.0667 19.0401 47.6933 17.8534 48.52 16.8401C49.3733 15.8001 50.4267 15.0001 51.68 14.4401C52.9333 13.8801 54.3867 13.6001 56.04 13.6001C57.6667 13.6001 59.08 13.8801 60.28 14.4401C61.5067 14.9734 62.5067 15.7468 63.28 16.7601C64.0533 17.7468 64.56 18.9068 64.8 20.2401L60.72 21.4801C60.64 20.7068 60.4133 19.9868 60.04 19.3201C59.6667 18.6534 59.1333 18.1334 58.44 17.7601C57.7467 17.3601 56.9067 17.1601 55.92 17.1601C54.9867 17.1601 54.1733 17.3468 53.48 17.7201C52.7867 18.0668 52.2133 18.5868 51.76 19.2801C51.3067 19.9468 50.96 20.7334 50.72 21.6401C50.5067 22.5468 50.4 23.5468 50.4 24.6401C50.4 26.1334 50.6 27.4401 51 28.5601C51.4267 29.6534 52.08 30.5068 52.96 31.1201C53.84 31.7068 54.9467 32.0001 56.28 32.0001C57.4 32.0001 58.32 31.8001 59.04 31.4001C59.76 31.0001 60.32 30.4668 60.72 29.8001C61.12 29.1068 61.3867 28.3068 61.52 27.4001L65.4 28.3201C65.24 29.4134 64.92 30.4134 64.44 31.3201C63.96 32.2001 63.3333 32.9468 62.56 33.5601C61.7867 34.1734 60.8667 34.6401 59.8 34.9601C58.76 35.2801 57.5733 35.4401 56.24 35.4401Z" fill="#C0FECF"/>
</svg>
