<svg id="page-ancestor-members-only-icon" xmlns="http://www.w3.org/2000/svg" viewBox="-2 0 13 16" width="15" height="16"><mask id="page-ancestor-members-only-icon-member-badge-mask"><rect fill="white" x="0" y="0" width="100%" height="100%"></rect><path transform="translate(-3, 4)" fill-rule="evenodd" clip-rule="evenodd" d="M0 10V13H11V10C11 8.68166 10.3622 7.51228 9.37837 6.78357C9.77337 6.11415 10 5.33354 10 4.5C10 2.01472 7.98528 0 5.5 0C3.01472 0 1 2.01472 1 4.5C1 5.33354 1.22663 6.11415 1.62163 6.78357C0.637782 7.51228 0 8.68166 0 10Z" fill="black"></path></mask><path mask="url(#page-ancestor-members-only-icon-member-badge-mask)" fill="currentColor" d="M8 1H1v13h11V5z"></path><g fill="currentColor" transform="translate(-1, 6)"><path d="m3.5 5c1.38071 0 2.5-1.11929 2.5-2.5s-1.11929-2.5-2.5-2.5-2.5 1.11929-2.5 2.5 1.11929 2.5 2.5 2.5z"></path><path d="m2 6c-1.104569 0-2 .89543-2 2v1h7v-1c0-1.10457-.89543-2-2-2z"></path></g></svg>