<svg data-wf-icon="BorderRadiusAllIcon" width="16" height="16" viewBox="0 0 16 16" fill="none" xmlns="http://www.w3.org/2000/svg"><path d="M4.5 2C3.11929 2 2 3.11929 2 4.5V7H3V4.5C3 3.67157 3.67157 3 4.5 3H7V2H4.5Z" fill="currentColor"></path><path d="M9 2V3H11.5C12.3284 3 13 3.67157 13 4.5V7H14V4.5C14 3.11929 12.8807 2 11.5 2H9Z" fill="currentColor"></path><path d="M14 9H13V11.5C13 12.3284 12.3284 13 11.5 13H9V14H11.5C12.8807 14 14 12.8807 14 11.5V9Z" fill="currentColor"></path><path d="M7 14V13H4.5C3.67157 13 3 12.3284 3 11.5V9H2V11.5C2 12.8807 3.11929 14 4.5 14H7Z" fill="currentColor"></path></svg>