<svg id="page-draft-icon" xmlns="http://www.w3.org/2000/svg" viewBox="-2 0 13 16" width="15" height="16"><mask id="page-draft-icon-draft-badge-mask"><rect fill="white" x="0" y="0" width="100%" height="100%"></rect><path transform="translate(-5, 6)" fill="#000" d="M12.5459415,5.18198052 L6.90879015,10.8191319 L0.544829121,12.9404523 L2.66614946,6.57649122 L8.30330086,0.939339828 C9.27961159,-0.0369709012 10.862524,-0.0369709012 11.8388348,0.939339828 L12.5459415,1.64644661 C13.5222523,2.62275734 13.5222523,4.20566979 12.5459415,5.18198052 Z"></path></mask><path mask="url(#page-draft-icon-draft-badge-mask)" fill="currentColor" d="M8 1H1v13h11V5z"></path><g transform="translate(-5, 6)"><path fill="#F67E28" fill-rule="evenodd" d="M7.94974747,4.12132034 L9.36396103,5.53553391 L5.82842712,9.07106781 L3.70710678,9.77817459 L4.41421356,7.65685425 L7.94974747,4.12132034 Z M10.4246212,2.35355339 L11.131728,3.06066017 C11.3269901,3.25592232 11.3269901,3.57250481 11.131728,3.76776695 L10.0710678,4.82842712 L8.65685425,3.41421356 L9.71751442,2.35355339 C9.91277657,2.15829124 10.2293591,2.15829124 10.4246212,2.35355339 Z"></path></g></svg>