<svg data-icon="TransparentCheckerboardDark" aria-hidden="true" focusable="false" width="24" height="24" viewBox="0 0 24 24" class="bem-Svg" style="display: block; width: 24px; height: 24px; position: relative; top: -1px; left: -1px; color: black;" xmlns="http://www.w3.org/2000/svg"><path fill-rule="evenodd" clip-rule="evenodd" d="M4 0H0v4h4v4H0v4h4v4H0v4h4v4h4v-4h4v4h4v-4h4v4h4v-4h-4v-4h4v-4h-4V8h4V4h-4V0h-4v4h-4V0H8v4H4V0zm4 8V4h4v4H8zm0 4V8H4v4h4zm4 0V8h4v4h-4zm0 4v-4H8v4H4v4h4v-4h4zm4 0v4h-4v-4h4zm0 0v-4h4v4h-4zm0-8V4h4v4h-4z" fill="currentColor" fill-opacity=".2"></path></svg>