<svg xmlns="http://www.w3.org/2000/svg" style="position: absolute; width: 0px; height: 0px; overflow: hidden;"><defs><svg id="page-icon" xmlns="http://www.w3.org/2000/svg" viewBox="-2 0 13 16" width="15" height="16"><path mask="none" fill="currentColor" d="M8 1H1v13h11V5z"></path></svg><svg id="page-draft-icon" xmlns="http://www.w3.org/2000/svg" viewBox="-2 0 13 16" width="15" height="16"><mask id="page-draft-icon-draft-badge-mask"><rect fill="white" x="0" y="0" width="100%" height="100%"></rect><path transform="translate(-5, 6)" fill="#000" d="M12.5459415,5.18198052 L6.90879015,10.8191319 L0.544829121,12.9404523 L2.66614946,6.57649122 L8.30330086,0.939339828 C9.27961159,-0.0369709012 10.862524,-0.0369709012 11.8388348,0.939339828 L12.5459415,1.64644661 C13.5222523,2.62275734 13.5222523,4.20566979 12.5459415,5.18198052 Z"></path></mask><path mask="url(#page-draft-icon-draft-badge-mask)" fill="currentColor" d="M8 1H1v13h11V5z"></path><g transform="translate(-5, 6)"><path fill="#F67E28" fill-rule="evenodd" d="M7.94974747,4.12132034 L9.36396103,5.53553391 L5.82842712,9.07106781 L3.70710678,9.77817459 L4.41421356,7.65685425 L7.94974747,4.12132034 Z M10.4246212,2.35355339 L11.131728,3.06066017 C11.3269901,3.25592232 11.3269901,3.57250481 11.131728,3.76776695 L10.0710678,4.82842712 L8.65685425,3.41421356 L9.71751442,2.35355339 C9.91277657,2.15829124 10.2293591,2.15829124 10.4246212,2.35355339 Z"></path></g></svg><svg id="page-protected-icon" xmlns="http://www.w3.org/2000/svg" viewBox="-2 0 13 16" width="15" height="16"><mask id="page-protected-icon-lock-badge-mask"><rect fill="white" x="0" y="0" width="100%" height="100%"></rect><path transform="translate(-3, 4)" fill="black" d="M10 5v8H0V5a5 5 0 0 1 10 0z"></path></mask><path mask="url(#page-protected-icon-lock-badge-mask)" fill="currentColor" d="M8 1H1v13h11V5z"></path><g transform="translate(-3, 4)"><path fill="#E6BE49" d="M2 7h6v4H2z"></path><path fill="#D6D6D6" d="M8 6V5a3 3 0 0 0-6 0v1h1.1V5a1.9 1.9 0 0 1 3.8 0v1H8z"></path></g></svg><svg id="page-ancestor-protected-icon" xmlns="http://www.w3.org/2000/svg" viewBox="-2 0 13 16" width="15" height="16"><mask id="page-ancestor-protected-icon-lock-badge-mask"><rect fill="white" x="0" y="0" width="100%" height="100%"></rect><path transform="translate(-3, 4)" fill="black" d="M10 5v8H0V5a5 5 0 0 1 10 0z"></path></mask><path mask="url(#page-ancestor-protected-icon-lock-badge-mask)" fill="currentColor" d="M8 1H1v13h11V5z"></path><g transform="translate(-3, 4)"><path fill="currentColor" d="M2 7h6v4H2z"></path><path fill="currentColor" d="M8 6V5a3 3 0 0 0-6 0v1h1.1V5a1.9 1.9 0 0 1 3.8 0v1H8z"></path></g></svg><svg id="page-members-only-icon" xmlns="http://www.w3.org/2000/svg" viewBox="-2 0 13 16" width="15" height="16"><mask id="page-members-only-icon-member-badge-mask"><rect fill="white" x="0" y="0" width="100%" height="100%"></rect><path transform="translate(-3, 4)" fill-rule="evenodd" clip-rule="evenodd" d="M0 10V13H11V10C11 8.68166 10.3622 7.51228 9.37837 6.78357C9.77337 6.11415 10 5.33354 10 4.5C10 2.01472 7.98528 0 5.5 0C3.01472 0 1 2.01472 1 4.5C1 5.33354 1.22663 6.11415 1.62163 6.78357C0.637782 7.51228 0 8.68166 0 10Z" fill="black"></path></mask><path mask="url(#page-members-only-icon-member-badge-mask)" fill="currentColor" d="M8 1H1v13h11V5z"></path><g fill="#5ea6f7" transform="translate(-1, 6)"><path d="m3.5 5c1.38071 0 2.5-1.11929 2.5-2.5s-1.11929-2.5-2.5-2.5-2.5 1.11929-2.5 2.5 1.11929 2.5 2.5 2.5z"></path><path d="m2 6c-1.104569 0-2 .89543-2 2v1h7v-1c0-1.10457-.89543-2-2-2z"></path></g></svg><svg id="page-ancestor-members-only-icon" xmlns="http://www.w3.org/2000/svg" viewBox="-2 0 13 16" width="15" height="16"><mask id="page-ancestor-members-only-icon-member-badge-mask"><rect fill="white" x="0" y="0" width="100%" height="100%"></rect><path transform="translate(-3, 4)" fill-rule="evenodd" clip-rule="evenodd" d="M0 10V13H11V10C11 8.68166 10.3622 7.51228 9.37837 6.78357C9.77337 6.11415 10 5.33354 10 4.5C10 2.01472 7.98528 0 5.5 0C3.01472 0 1 2.01472 1 4.5C1 5.33354 1.22663 6.11415 1.62163 6.78357C0.637782 7.51228 0 8.68166 0 10Z" fill="black"></path></mask><path mask="url(#page-ancestor-members-only-icon-member-badge-mask)" fill="currentColor" d="M8 1H1v13h11V5z"></path><g fill="currentColor" transform="translate(-1, 6)"><path d="m3.5 5c1.38071 0 2.5-1.11929 2.5-2.5s-1.11929-2.5-2.5-2.5-2.5 1.11929-2.5 2.5 1.11929 2.5 2.5 2.5z"></path><path d="m2 6c-1.104569 0-2 .89543-2 2v1h7v-1c0-1.10457-.89543-2-2-2z"></path></g></svg><svg id="folder-icon" xmlns="http://www.w3.org/2000/svg" viewBox="-2 0 15 16" width="17" height="16"><path mask="none" fill="currentColor" d="M9.498 3c-.132.17-.29.37-.487.6-.48.56-1.114 1.24-1.845 1.752-.493.333-1.034.635-1.747.648H1v7h13V3H9.498zm-3.537.75a6.3 6.3 0 0 0 .948-.81c.184-.187.354-.377.513-.56L6.125 1H1v3h4.416c.016.01.255-.05.545-.25z"></path></svg><svg id="folder-protected-icon" xmlns="http://www.w3.org/2000/svg" viewBox="-2 0 15 16" width="17" height="16"><mask id="folder-protected-icon-lock-badge-mask"><rect fill="white" x="0" y="0" width="100%" height="100%"></rect><path transform="translate(-3, 4)" fill="black" d="M10 5v8H0V5a5 5 0 0 1 10 0z"></path></mask><path mask="url(#folder-protected-icon-lock-badge-mask)" fill="currentColor" d="M9.498 3c-.132.17-.29.37-.487.6-.48.56-1.114 1.24-1.845 1.752-.493.333-1.034.635-1.747.648H1v7h13V3H9.498zm-3.537.75a6.3 6.3 0 0 0 .948-.81c.184-.187.354-.377.513-.56L6.125 1H1v3h4.416c.016.01.255-.05.545-.25z"></path><g transform="translate(-3, 4)"><path fill="#E6BE49" d="M2 7h6v4H2z"></path><path fill="#D6D6D6" d="M8 6V5a3 3 0 0 0-6 0v1h1.1V5a1.9 1.9 0 0 1 3.8 0v1H8z"></path></g></svg><svg id="folder-ancestor-protected-icon" xmlns="http://www.w3.org/2000/svg" viewBox="-2 0 15 16" width="17" height="16"><mask id="folder-ancestor-protected-icon-lock-badge-mask"><rect fill="white" x="0" y="0" width="100%" height="100%"></rect><path transform="translate(-3, 4)" fill="black" d="M10 5v8H0V5a5 5 0 0 1 10 0z"></path></mask><path mask="url(#folder-ancestor-protected-icon-lock-badge-mask)" fill="currentColor" d="M9.498 3c-.132.17-.29.37-.487.6-.48.56-1.114 1.24-1.845 1.752-.493.333-1.034.635-1.747.648H1v7h13V3H9.498zm-3.537.75a6.3 6.3 0 0 0 .948-.81c.184-.187.354-.377.513-.56L6.125 1H1v3h4.416c.016.01.255-.05.545-.25z"></path><g transform="translate(-3, 4)"><path fill="currentColor" d="M2 7h6v4H2z"></path><path fill="currentColor" d="M8 6V5a3 3 0 0 0-6 0v1h1.1V5a1.9 1.9 0 0 1 3.8 0v1H8z"></path></g></svg><svg id="folder-members-only-icon" xmlns="http://www.w3.org/2000/svg" viewBox="-2 0 15 16" width="17" height="16"><mask id="folder-members-only-icon-member-badge-mask"><rect fill="white" x="0" y="0" width="100%" height="100%"></rect><path transform="translate(-3, 4)" fill-rule="evenodd" clip-rule="evenodd" d="M0 10V13H11V10C11 8.68166 10.3622 7.51228 9.37837 6.78357C9.77337 6.11415 10 5.33354 10 4.5C10 2.01472 7.98528 0 5.5 0C3.01472 0 1 2.01472 1 4.5C1 5.33354 1.22663 6.11415 1.62163 6.78357C0.637782 7.51228 0 8.68166 0 10Z" fill="black"></path></mask><path mask="url(#folder-members-only-icon-member-badge-mask)" fill="currentColor" d="M9.498 3c-.132.17-.29.37-.487.6-.48.56-1.114 1.24-1.845 1.752-.493.333-1.034.635-1.747.648H1v7h13V3H9.498zm-3.537.75a6.3 6.3 0 0 0 .948-.81c.184-.187.354-.377.513-.56L6.125 1H1v3h4.416c.016.01.255-.05.545-.25z"></path><g fill="#5ea6f7" transform="translate(-1, 6)"><path d="m3.5 5c1.38071 0 2.5-1.11929 2.5-2.5s-1.11929-2.5-2.5-2.5-2.5 1.11929-2.5 2.5 1.11929 2.5 2.5 2.5z"></path><path d="m2 6c-1.104569 0-2 .89543-2 2v1h7v-1c0-1.10457-.89543-2-2-2z"></path></g></svg><svg id="folder-ancestor-members-only-icon" xmlns="http://www.w3.org/2000/svg" viewBox="-2 0 15 16" width="17" height="16"><mask id="folder-ancestor-members-only-icon-member-badge-mask"><rect fill="white" x="0" y="0" width="100%" height="100%"></rect><path transform="translate(-3, 4)" fill-rule="evenodd" clip-rule="evenodd" d="M0 10V13H11V10C11 8.68166 10.3622 7.51228 9.37837 6.78357C9.77337 6.11415 10 5.33354 10 4.5C10 2.01472 7.98528 0 5.5 0C3.01472 0 1 2.01472 1 4.5C1 5.33354 1.22663 6.11415 1.62163 6.78357C0.637782 7.51228 0 8.68166 0 10Z" fill="black"></path></mask><path mask="url(#folder-ancestor-members-only-icon-member-badge-mask)" fill="currentColor" d="M9.498 3c-.132.17-.29.37-.487.6-.48.56-1.114 1.24-1.845 1.752-.493.333-1.034.635-1.747.648H1v7h13V3H9.498zm-3.537.75a6.3 6.3 0 0 0 .948-.81c.184-.187.354-.377.513-.56L6.125 1H1v3h4.416c.016.01.255-.05.545-.25z"></path><g fill="currentColor" transform="translate(-1, 6)"><path d="m3.5 5c1.38071 0 2.5-1.11929 2.5-2.5s-1.11929-2.5-2.5-2.5-2.5 1.11929-2.5 2.5 1.11929 2.5 2.5 2.5z"></path><path d="m2 6c-1.104569 0-2 .89543-2 2v1h7v-1c0-1.10457-.89543-2-2-2z"></path></g></svg><svg id="folder-open-icon" xmlns="http://www.w3.org/2000/svg" viewBox="-2 0 15 16" width="17" height="16"><g mask="none"><path fill="currentColor" d="M5.26 3l1.28 1.368.594.632H12v6H3V3h2.26m.865-2H1v12h13V3H8L6.125 1z"></path><path fill="currentColor" d="M1 7v6h13V9H8L6.125 7z"></path></g></svg><svg id="folder-open-protected-icon" xmlns="http://www.w3.org/2000/svg" viewBox="-2 0 15 16" width="17" height="16"><mask id="folder-open-protected-icon-lock-badge-mask"><rect fill="white" x="0" y="0" width="100%" height="100%"></rect><path transform="translate(-3, 4)" fill="black" d="M10 5v8H0V5a5 5 0 0 1 10 0z"></path></mask><g mask="url(#folder-open-protected-icon-lock-badge-mask)"><path fill="currentColor" d="M5.26 3l1.28 1.368.594.632H12v6H3V3h2.26m.865-2H1v12h13V3H8L6.125 1z"></path><path fill="currentColor" d="M1 7v6h13V9H8L6.125 7z"></path></g><g transform="translate(-3, 4)"><path fill="#E6BE49" d="M2 7h6v4H2z"></path><path fill="#D6D6D6" d="M8 6V5a3 3 0 0 0-6 0v1h1.1V5a1.9 1.9 0 0 1 3.8 0v1H8z"></path></g></svg><svg id="folder-open-ancestor-protected-icon" xmlns="http://www.w3.org/2000/svg" viewBox="-2 0 15 16" width="17" height="16"><mask id="folder-open-ancestor-protected-icon-lock-badge-mask"><rect fill="white" x="0" y="0" width="100%" height="100%"></rect><path transform="translate(-3, 4)" fill="black" d="M10 5v8H0V5a5 5 0 0 1 10 0z"></path></mask><g mask="url(#folder-open-ancestor-protected-icon-lock-badge-mask)"><path fill="currentColor" d="M5.26 3l1.28 1.368.594.632H12v6H3V3h2.26m.865-2H1v12h13V3H8L6.125 1z"></path><path fill="currentColor" d="M1 7v6h13V9H8L6.125 7z"></path></g><g transform="translate(-3, 4)"><path fill="currentColor" d="M2 7h6v4H2z"></path><path fill="currentColor" d="M8 6V5a3 3 0 0 0-6 0v1h1.1V5a1.9 1.9 0 0 1 3.8 0v1H8z"></path></g></svg><svg id="folder-open-members-only-icon" xmlns="http://www.w3.org/2000/svg" viewBox="-2 0 15 16" width="17" height="16"><mask id="folder-open-members-only-icon-member-badge-mask"><rect fill="white" x="0" y="0" width="100%" height="100%"></rect><path transform="translate(-3, 4)" fill-rule="evenodd" clip-rule="evenodd" d="M0 10V13H11V10C11 8.68166 10.3622 7.51228 9.37837 6.78357C9.77337 6.11415 10 5.33354 10 4.5C10 2.01472 7.98528 0 5.5 0C3.01472 0 1 2.01472 1 4.5C1 5.33354 1.22663 6.11415 1.62163 6.78357C0.637782 7.51228 0 8.68166 0 10Z" fill="black"></path></mask><g mask="url(#folder-open-members-only-icon-member-badge-mask)"><path fill="currentColor" d="M5.26 3l1.28 1.368.594.632H12v6H3V3h2.26m.865-2H1v12h13V3H8L6.125 1z"></path><path fill="currentColor" d="M1 7v6h13V9H8L6.125 7z"></path></g><g fill="#5ea6f7" transform="translate(-1, 6)"><path d="m3.5 5c1.38071 0 2.5-1.11929 2.5-2.5s-1.11929-2.5-2.5-2.5-2.5 1.11929-2.5 2.5 1.11929 2.5 2.5 2.5z"></path><path d="m2 6c-1.104569 0-2 .89543-2 2v1h7v-1c0-1.10457-.89543-2-2-2z"></path></g></svg><svg id="folder-open-ancestor-members-only-icon" xmlns="http://www.w3.org/2000/svg" viewBox="-2 0 15 16" width="17" height="16"><mask id="folder-open-ancestor-members-only-icon-member-badge-mask"><rect fill="white" x="0" y="0" width="100%" height="100%"></rect><path transform="translate(-3, 4)" fill-rule="evenodd" clip-rule="evenodd" d="M0 10V13H11V10C11 8.68166 10.3622 7.51228 9.37837 6.78357C9.77337 6.11415 10 5.33354 10 4.5C10 2.01472 7.98528 0 5.5 0C3.01472 0 1 2.01472 1 4.5C1 5.33354 1.22663 6.11415 1.62163 6.78357C0.637782 7.51228 0 8.68166 0 10Z" fill="black"></path></mask><g mask="url(#folder-open-ancestor-members-only-icon-member-badge-mask)"><path fill="currentColor" d="M5.26 3l1.28 1.368.594.632H12v6H3V3h2.26m.865-2H1v12h13V3H8L6.125 1z"></path><path fill="currentColor" d="M1 7v6h13V9H8L6.125 7z"></path></g><g fill="currentColor" transform="translate(-1, 6)"><path d="m3.5 5c1.38071 0 2.5-1.11929 2.5-2.5s-1.11929-2.5-2.5-2.5-2.5 1.11929-2.5 2.5 1.11929 2.5 2.5 2.5z"></path><path d="m2 6c-1.104569 0-2 .89543-2 2v1h7v-1c0-1.10457-.89543-2-2-2z"></path></g></svg></defs></svg>