<svg xmlns="http://www.w3.org/2000/svg" width="150" height="62" class="wf-1rzwxxs --styled-sWCga wf-f6zwxq"><mask id="padding-mask" width="150" height="62"><rect fill="#000" height="60" width="150" x="0" y="0"></rect><rect fill="#fff" height="60" rx="2" width="150" x="0" y="0"></rect><rect fill="#000" height="14" rx="2" width="80" x="35" y="23"></rect></mask><defs><linearGradient id="FuseLinearGradient" x1="0" y1="0" x2="0" y2="1"><stop stop-color="white"></stop><stop offset="1" stop-color="white" stop-opacity="0"></stop></linearGradient></defs><g style=""><g style=""><path cursor="s-resize" mode="delta" fill="var(--colors-background-1)" d="
  m0,0
  h150
  l-36,24
  h-78
  l-36,-24z
" data-automation-id="padding-top-button" aria-label="Padding top button" mask="url(#padding-mask)" style="color: var(--colors-background-1); cursor: s-resize;"></path><path cursor="s-resize" mode="delta" fill="white" d="
  m0,0
  h150
  l-36,24
  h-78
  l-36,-24z
" fill-opacity="0.064" mask="url(#padding-mask)" style="color: var(--colors-background-1); cursor: s-resize;"></path></g></g><g><g><path cursor="w-resize" mode="delta" fill="var(--colors-background-1)" d="
  m150,0
  v60
  l-36,-24
  v-12
  l36,-24z
" data-automation-id="padding-right-button" aria-label="Padding right button" mask="url(#padding-mask)" style="color: rgb(85, 85, 85); cursor: w-resize;"></path><path cursor="w-resize" mode="delta" fill="white" d="
  m150,0
  v60
  l-36,-24
  v-12
  l36,-24z
" fill-opacity="0.094" mask="url(#padding-mask)" style="color: rgb(85, 85, 85); cursor: w-resize;"></path></g></g><g style=""><g style=""><path cursor="n-resize" mode="delta" fill="var(--colors-background-1)" d="
  m0,60
  h150
  l-36,-24
  h-78
  l-36,24z
" data-automation-id="padding-bottom-button" aria-label="Padding bottom button" mask="url(#padding-mask)" style="color: var(--colors-background-1); cursor: n-resize;"></path><path cursor="n-resize" mode="delta" fill="white" d="
  m0,60
  h150
  l-36,-24
  h-78
  l-36,24z
" fill-opacity="0.12" mask="url(#padding-mask)" style="color: var(--colors-background-1); cursor: n-resize;"></path><path cursor="n-resize" mode="delta" fill="url(#FuseLinearGradient)" d="
  m0,60
  h150
  l-36,-24
  h-78
  l-36,24z
" fill-opacity="0.02" mask="url(#padding-mask)" style="color: var(--colors-background-1); cursor: n-resize;"></path></g></g><g><g><path cursor="e-resize" mode="delta" fill="var(--colors-background-1)" d="
  m0,0
  v60
  l36,-24
  v-12
  l-36,-24z
" data-automation-id="padding-left-button" aria-label="Padding left button" mask="url(#padding-mask)" style="color: rgb(85, 85, 85); cursor: e-resize;"></path><path cursor="e-resize" mode="delta" fill="white" d="
  m0,0
  v60
  l36,-24
  v-12
  l-36,-24z
" fill-opacity="0.094" mask="url(#padding-mask)" style="color: rgb(85, 85, 85); cursor: e-resize;"></path></g></g><clipPath id="padding-outer"><rect x="0" y="0" width="150" height="62" fill="transparent" rx="4" ry="4" style="pointer-events: none;"></rect></clipPath><rect clip-path="url(#padding-outer)" x="0" y="0" width="150" height="62" fill="transparent" rx="4" ry="4" style="pointer-events: none; stroke-width: 0px; stroke: var(--colors-border-2);"></rect><clipPath id="padding-inner"><rect x="36" y="24" width="78" height="14" fill="transparent" rx="4" ry="4" style="pointer-events: none;"></rect></clipPath><rect clip-path="url(#padding-inner)" x="36" y="24" width="78" height="14" fill="transparent" rx="4" ry="4" style="pointer-events: none; stroke-width: 0px; stroke: var(--colors-border-2);"></rect></svg>