<svg id="folder-ancestor-members-only-icon" xmlns="http://www.w3.org/2000/svg" viewBox="-2 0 15 16" width="17" height="16"><mask id="folder-ancestor-members-only-icon-member-badge-mask"><rect fill="white" x="0" y="0" width="100%" height="100%"></rect><path transform="translate(-3, 4)" fill-rule="evenodd" clip-rule="evenodd" d="M0 10V13H11V10C11 8.68166 10.3622 7.51228 9.37837 6.78357C9.77337 6.11415 10 5.33354 10 4.5C10 2.01472 7.98528 0 5.5 0C3.01472 0 1 2.01472 1 4.5C1 5.33354 1.22663 6.11415 1.62163 6.78357C0.637782 7.51228 0 8.68166 0 10Z" fill="black"></path></mask><path mask="url(#folder-ancestor-members-only-icon-member-badge-mask)" fill="currentColor" d="M9.498 3c-.132.17-.29.37-.487.6-.48.56-1.114 1.24-1.845 1.752-.493.333-1.034.635-1.747.648H1v7h13V3H9.498zm-3.537.75a6.3 6.3 0 0 0 .948-.81c.184-.187.354-.377.513-.56L6.125 1H1v3h4.416c.016.01.255-.05.545-.25z"></path><g fill="currentColor" transform="translate(-1, 6)"><path d="m3.5 5c1.38071 0 2.5-1.11929 2.5-2.5s-1.11929-2.5-2.5-2.5-2.5 1.11929-2.5 2.5 1.11929 2.5 2.5 2.5z"></path><path d="m2 6c-1.104569 0-2 .89543-2 2v1h7v-1c0-1.10457-.89543-2-2-2z"></path></g></svg>