<svg id="folder-open-members-only-icon" xmlns="http://www.w3.org/2000/svg" viewBox="-2 0 15 16" width="17" height="16"><mask id="folder-open-members-only-icon-member-badge-mask"><rect fill="white" x="0" y="0" width="100%" height="100%"></rect><path transform="translate(-3, 4)" fill-rule="evenodd" clip-rule="evenodd" d="M0 10V13H11V10C11 8.68166 10.3622 7.51228 9.37837 6.78357C9.77337 6.11415 10 5.33354 10 4.5C10 2.01472 7.98528 0 5.5 0C3.01472 0 1 2.01472 1 4.5C1 5.33354 1.22663 6.11415 1.62163 6.78357C0.637782 7.51228 0 8.68166 0 10Z" fill="black"></path></mask><g mask="url(#folder-open-members-only-icon-member-badge-mask)"><path fill="currentColor" d="M5.26 3l1.28 1.368.594.632H12v6H3V3h2.26m.865-2H1v12h13V3H8L6.125 1z"></path><path fill="currentColor" d="M1 7v6h13V9H8L6.125 7z"></path></g><g fill="#5ea6f7" transform="translate(-1, 6)"><path d="m3.5 5c1.38071 0 2.5-1.11929 2.5-2.5s-1.11929-2.5-2.5-2.5-2.5 1.11929-2.5 2.5 1.11929 2.5 2.5 2.5z"></path><path d="m2 6c-1.104569 0-2 .89543-2 2v1h7v-1c0-1.10457-.89543-2-2-2z"></path></g></svg>